<?xml version="1.0" encoding="UTF-8"?>
<svg width="22px" height="18px" viewBox="0 0 22 18" version="1.1" xmlns="http://www.w3.org/2000/svg" xmlns:xlink="http://www.w3.org/1999/xlink">
    <!-- Generator: Sketch 58 (84663) - https://sketch.com -->
    <title>social/medium</title>
    <desc>Created with Sketch.</desc>
    <g id="Design" stroke="none" stroke-width="1" fill="none" fill-rule="evenodd">
        <g id="Artboard" transform="translate(-558.000000, -268.000000)" fill="#2D354C">
            <g id="social-media" transform="translate(202.000000, 264.000000)">
                <g id="social/medium" transform="translate(354.000000, 0.000000)">
                    <path d="M4.60878,7.76296 C4.63611,7.4929 4.53312,7.22597 4.33147,7.04421 L2.277311,4.56966 L2.277311,4.20001 L8.65546,4.20001 L13.5854,15.0121 L17.9197,4.20001 L24,4.20001 L24,4.56966 L22.2437,6.25359 C22.0923,6.369 22.0172,6.5587 22.0486,6.74644 L22.0486,19.1192 C22.0172,19.307 22.0923,19.4967 22.2437,19.6121 L23.9589,21.296 L23.9589,21.6657 L15.3315,21.6657 L15.3315,21.296 L17.1083,19.571 C17.2829,19.3965 17.2829,19.3451 17.2829,19.0782 L17.2829,9.07725 L12.3427,21.6246 L11.67507,21.6246 L5.92344,9.07725 L5.92344,17.4866 C5.87548,17.8402 5.9929,18.1961 6.24183,18.4518 L8.55275,21.2549 L8.55275,21.6246 L2,21.6246 L2,21.2549 L4.31092,18.4518 C4.55804,18.1957 4.66861,17.8374 4.60878,17.4866 L4.60878,7.76296 Z" id="Path"></path>
                </g>
            </g>
        </g>
    </g>
</svg>